<?xml version="1.0" ?><svg height="48px" version="1.1" viewBox="0 0 48 48" width="48px" xmlns="http://www.w3.org/2000/svg" xmlns:xlink="http://www.w3.org/1999/xlink"><title/><desc/><g fill="none" fill-rule="evenodd" id="Page-1" stroke="none" stroke-width="1"><g id="Artboard-Copy" transform="translate(-347.000000, -249.000000)"><path d="M357,254.9995 C355.895,254.9995 354.998,255.8955 354.998,257.0005 L354.998,266.9995 C354.998,268.1045 355.895,269.0005 357,269.0005 L367,269.0005 C368.104,269.0005 369,268.1045 369,266.9995 L369,257.0005 C369,255.8955 368.104,254.9995 367,254.9995 L357,254.9995 Z M357,273.0005 C355.895,273.0005 354.998,273.8945 354.998,274.9995 L354.998,285.0005 C354.998,286.1035 355.895,286.9995 357,286.9995 L367,286.9995 C368.104,286.9995 369,286.1035 369,285.0005 L369,274.9995 C369,273.8945 368.104,273.0005 367,273.0005 L357,273.0005 Z M375,254.9995 C373.896,254.9995 373,255.8955 373,257.0005 L373,266.9995 C373,268.1045 373.896,269.0005 375,269.0005 L385,269.0005 C386.105,269.0005 387,268.1045 387,266.9995 L387,257.0005 C387,255.8955 386.105,254.9995 385,254.9995 L375,254.9995 Z M375,273.0005 C373.896,273.0005 373,273.8945 373,274.9995 L373,285.0005 C373,286.1035 373.896,286.9995 375,286.9995 L385,286.9995 C386.105,286.9995 387,286.1035 387,285.0005 L387,274.9995 C387,273.8945 386.105,273.0005 385,273.0005 L375,273.0005 Z" fill="#000000" id="grid"/><g id="slices" transform="translate(47.000000, 9.000000)"/></g></g></svg>